<?xml version="1.0" encoding="UTF-8" standalone="no"?>
<svg width="672px" height="212px" viewBox="0 0 672 212" version="1.1" xmlns="http://www.w3.org/2000/svg" xmlns:xlink="http://www.w3.org/1999/xlink" xmlns:sketch="http://www.bohemiancoding.com/sketch/ns">
    <!-- Generator: Sketch 3.0.3 (7891) - http://www.bohemiancoding.com/sketch -->
    <title>CHX Monogram v1.4d</title>
    <desc>Created with Sketch.</desc>
    <defs></defs>
    <g id="Logo" stroke="none" stroke-width="1" fill="none" fill-rule="evenodd" sketch:type="MSPage">
        <g id="CHX-Monogram-v1.4d" sketch:type="MSArtboardGroup" transform="translate(-467.000000, -491.000000)">
            <g id="las-vegas-+-gt-walsh-chx" sketch:type="MSLayerGroup" transform="translate(463.000000, 471.000000)">
                <g id="gt-walsh-chx" sketch:type="MSShapeGroup">
                    <g id="gt-walsh-bold-+-4-stroke" transform="translate(4.000000, 20.000000)" fill="#C83A3A">
                        <path d="M472.1875,207 L532.09375,106.171875 L472.1875,5.34375 L523.515625,5.34375 L558.671875,70.453125 L593.6875,5.34375 L645.296875,5.34375 L585.390625,106.171875 L645.296875,207 L593.6875,207 L558.671875,142.171875 L523.515625,207 L472.1875,207 Z" id="Path"></path>
                        <path d="M257.8125,207 L257.8125,5.34375 L304.5,5.34375 L304.5,86.90625 L374.25,86.90625 L374.25,5.34375 L420.515625,5.34375 L420.515625,207 L374.25,207 L374.25,126.984375 L304.5,126.984375 L304.5,207 L257.8125,207 Z" id="Path"></path>
                        <path d="M0,105.890625 C0,92.1093061 2.34372656,78.8203765 7.03125,66.0234375 C11.7187734,53.2264985 18.6093295,41.9297365 27.703125,32.1328125 C36.7969205,22.3358885 48.0233707,14.5312791 61.3828125,8.71875 C74.7422543,2.90622094 90.0467887,0 107.296875,0 C122.109449,0 135.421816,2.15622844 147.234375,6.46875 C159.046934,10.7812716 169.265582,16.7108998 177.890625,24.2578125 C186.515668,31.8047252 193.429661,40.6874489 198.632812,50.90625 C203.835964,61.1250511 207.093743,71.9530678 208.40625,83.390625 L159.75,83.390625 C158.624994,77.4843455 156.726576,72.0234626 154.054688,67.0078125 C151.382799,61.9921624 147.820335,57.632831 143.367188,53.9296875 C138.91404,50.226544 133.757842,47.320323 127.898437,45.2109375 C122.039033,43.101552 115.406287,42.046875 108,42.046875 C98.4374522,42.046875 89.8828502,43.8046699 82.3359375,47.3203125 C74.7890248,50.8359551 68.4375258,55.5234082 63.28125,61.3828125 C58.1249742,67.2422168 54.1875136,74.0624611 51.46875,81.84375 C48.7499864,89.6250389 47.390625,97.6405838 47.390625,105.890625 C47.390625,114.703169 48.89061,122.999961 51.890625,130.78125 C54.89064,138.562539 59.039036,145.335909 64.3359375,151.101562 C69.632839,156.867216 76.0077752,161.437483 83.4609375,164.8125 C90.9140998,168.187517 99.2812036,169.875 108.5625,169.875 C122.156318,169.875 133.265582,166.453159 141.890625,159.609375 C150.515668,152.765591 156.281235,144.37505 159.1875,134.4375 L208.6875,134.4375 C206.812491,145.218804 203.13284,155.249954 197.648438,164.53125 C192.164035,173.812546 185.156293,182.015589 176.625,189.140625 C168.093707,196.265661 158.015683,201.84373 146.390625,205.875 C134.765567,209.90627 121.96882,211.921875 108,211.921875 C91.1249156,211.921875 76.0078793,209.039091 62.6484375,203.273438 C49.2889957,197.507784 37.9453591,189.773486 28.6171875,180.070312 C19.2890159,170.367139 12.1875244,159.140689 7.3125,146.390625 C2.43747563,133.640561 0,120.140696 0,105.890625 L0,105.890625 Z" id="CHX"></path>
                    </g>
                    <path d="M65.3828125,28.71875 C67.8242512,27.65651 70.3306513,26.6913337 72.9020156,25.8232205 L93.7932543,64.5137945 C91.2068275,65.2737257 88.7210581,66.2092315 86.3359375,67.3203125 C78.7890248,70.8359551 72.4375258,75.5234082 67.28125,81.3828125 C64.660657,84.3607591 62.3548858,87.586892 60.3639208,91.0612382 L35.1461526,48.6172481 C43.5834289,40.4510073 53.6622397,33.8182273 65.3828125,28.71875 Z M151.234375,26.46875 C163.046934,30.7812716 173.265582,36.7108998 181.890625,44.2578125 C182.159925,44.4934497 182.427556,44.7303892 182.69352,44.968631 L157.893923,86.7087971 C155.240488,81.8187121 151.73161,77.5590495 147.367188,73.9296875 C142.91404,70.226544 137.757842,67.320323 131.898438,65.2109375 C128.983413,64.1615288 125.876986,63.3731618 122.579131,62.8458325 L142.78125,25.28125 L147.775023,25.28125 C148.942089,25.6570296 150.095206,26.0528629 151.234375,26.46875 Z M68.3359375,171.101562 C73.632839,176.867216 80.0077752,181.437483 87.4609375,184.8125 C89.6000097,185.781136 91.8143633,186.610771 94.1040044,187.301403 L73.2125165,225.825307 C70.9792712,225.048851 68.7912455,224.198228 66.6484375,223.273437 C54.6464277,218.093623 44.2713892,211.324901 35.5230753,202.967104 L60.6447966,160.68477 C62.8617791,164.461296 65.4254859,167.933549 68.3359375,171.101562 Z M145.890625,179.609375 C150.963726,175.583979 155.047566,171.02347 158.142181,165.927794 L182.738548,207.325905 C182.04474,207.938389 181.340224,208.543295 180.625,209.140625 C172.093707,216.265661 162.015683,221.84373 150.390625,225.875 C149.320007,226.246263 148.239451,226.600429 147.148957,226.9375 L142.78125,226.9375 L122.407436,189.217306 C131.621042,187.923511 139.448725,184.720882 145.890625,179.609375 Z" id="C" fill="#000000"></path>
                    <path d="M514.851562,25.34375 L502.1875,25.34375 L562.09375,126.171875 L502.1875,227 L514.851562,227 L527.515625,227 L562.671875,162.171875 L575.645823,186.191915 L588.671875,162.171875 L623.6875,227 L636.492188,227 L649.296875,227 L589.390625,126.171875 L649.296875,25.34375 L636.492188,25.34375 L623.6875,25.34375 L588.671875,90.453125 L575.645823,66.3288765 L562.671875,90.453125 L527.515625,25.34375 L514.851562,25.34375 Z" id="X" fill="#000000"></path>
                    <path d="M261.8125,218.563448 L261.8125,227 L284.970306,227 L308.128113,227 L308.5,226.31424 L308.5,146.984375 L378.25,146.984375 L378.25,226.907452 L378.299988,227 L401.407806,227 L424.515625,227 L424.515625,217.921808 L370.003113,126.171875 L424.515625,34.4219425 L424.515625,25.34375 L401.407806,25.34375 L378.299988,25.34375 L378.25,25.4366992 L378.25,106.90625 L308.5,106.90625 L308.5,26.0324851 L308.128113,25.34375 L284.970306,25.34375 L261.8125,25.34375 L261.8125,33.7803022 L316.706238,126.171875 L261.8125,218.563448 Z" id="Path" fill="#000000"></path>
                    <path d="M423.71875,25.34375 L378.40625,25.34375 L343.390625,90.453125 L308.234375,25.34375 L262.71875,25.34375 L262.71875,35.1267606 L316.8125,126.171875 L262.71875,217.216989 L262.71875,217.216989 L262.71875,227 L308.234375,227 L343.390625,162.171875 L378.40625,227 L423.71875,227 L423.71875,216.401739 L370.109375,126.171875 L423.71875,35.9420114 L423.71875,25.34375 Z" id="Path" fill="#2A6FE8"></path>
                    <path d="M177.921744,53 L134.484375,126.109375 L181.356629,205 L130.932145,205 L107.765625,162.109375 L89.9290605,195 L40.2566684,195 L40.2566684,195 L81.1875,126.109375 L40.7208421,58 L40.7208421,58 L90.2760867,58 L107.765625,90.390625 L130,49.0471888 L130,53 L177.921744,53 Z" id="Path" fill="#2A6FE8"></path>
                    <path d="M502.1875,227 L562.09375,126.171875 L502.1875,25.34375 L553.515625,25.34375 L588.671875,90.453125 L623.6875,25.34375 L675.296875,25.34375 L615.390625,126.171875 L675.296875,227 L623.6875,227 L588.671875,162.171875 L553.515625,227 L502.1875,227 Z" id="Path" fill="#2A6FE8"></path>
                </g>
            </g>
        </g>
    </g>
</svg>