<?xml version="1.0" encoding="UTF-8" standalone="no"?>
<svg width="102px" height="70px" viewBox="0 0 102 70" version="1.1" xmlns="http://www.w3.org/2000/svg" xmlns:xlink="http://www.w3.org/1999/xlink" xmlns:sketch="http://www.bohemiancoding.com/sketch/ns">
    <!-- Generator: Sketch 3.0.3 (7891) - http://www.bohemiancoding.com/sketch -->
    <title>Path + Path</title>
    <desc>Created with Sketch.</desc>
    <defs></defs>
    <g id="Page-1" stroke="none" stroke-width="1" fill="none" fill-rule="evenodd" sketch:type="MSPage">
        <g id="special-post-v1.1b" sketch:type="MSArtboardGroup" transform="translate(-669.000000, -1190.000000)" fill="#D8D8D8">
            <g id="post" sketch:type="MSLayerGroup" transform="translate(288.000000, 480.000000)">
                <g id="Path-+-Path" transform="translate(381.000000, 711.000000)" sketch:type="MSShapeGroup">
                    <path d="M41.2902127,29.8306333 C40.8410743,31.1734534 40.4900779,32.1757076 40.3534499,32.4945915 C40.2874313,32.648676 38.1463636,37.7450588 37.3425972,39.5958529 C35.8867484,42.9481656 34.5049399,45.9260636 33.0599801,48.757338 C26.7004208,61.2183468 20.3485708,68.4492188 13.5625,68.4492188 C5.8403938,68.4492188 2.79451468,63.5056987 4.46443565,56.3005256 C5.91285843,50.051046 10.6808673,43.4140392 15.6650916,40.9265852 C16.9517556,40.2844557 18.1895681,40.8322056 18.8249925,42.0414607 C19.3926083,43.1216715 19.3545891,44.4795086 18.5732988,45.2607988 C14.9145424,48.9195553 9.60381357,50.8247346 5.56945512,49.9038355 C0.915825141,48.841579 -1.10204281,44.4355291 0.608290603,37.5877897 C2.0973105,31.6261332 7.68095654,22.433461 12.0259302,18.4577869 C14.533577,16.1632766 16.6882092,15.7813547 17.3276696,18.3324091 C17.8759742,20.5198077 16.9969011,25.1297607 14.5787887,32.3931546 C14.3550075,33.0653361 14.3794238,33.6876755 14.6084498,35.1749124 C14.874209,36.9006856 14.9047688,37.6796181 14.5787887,38.6587796 L13.1555863,38.1849704 C13.3793675,37.5127889 13.3549512,36.8904495 13.1259252,35.4032126 C12.860166,33.6774394 12.8296062,32.8985069 13.1555863,31.9193454 C15.4816614,24.9324082 16.325895,20.5051575 15.8726839,18.6971233 C15.6393564,17.76629 14.8509612,17.9060379 13.0385177,19.5644334 C8.90768114,23.3441709 3.48010016,32.2799045 2.0635844,37.9512728 C0.539894237,44.0517402 2.15883795,47.586732 5.90326515,48.4414502 C9.39554752,49.2386128 14.1964468,47.5163305 17.5126387,44.2001387 C17.7685708,43.9442065 17.7868729,43.2905578 17.4971513,42.7391982 C17.2131234,42.1986741 16.8220429,42.0256153 16.3349084,42.2687273 C11.7749552,44.5444423 7.27811036,50.8039922 5.92570235,56.6391989 C4.45634541,62.9790026 6.90253725,66.9492188 13.5625,66.9492188 C19.5462726,66.9492188 25.8188757,60.4000833 31.9220432,48.441452 C33.3511775,45.6411863 34.9512285,41.9847332 36.3956302,38.6587791 C36.8630879,37.5823869 37.4646638,34.5097245 37.8975374,32.1111895 C38.2803597,31.8517899 38.6631062,31.593139 39.0457785,31.335237 C36.6940404,35.8443533 33.4540378,41.8861688 33.0599788,42.7391987 C29.8286362,49.7341715 28.5820313,54.8545302 28.5820313,58.6523438 C28.5820313,59.11739 29.9301086,59.818555 31.9220427,60.1451977 C33.9944293,60.4850332 36.0696158,60.3239309 36.780379,59.7906924 C38.5673396,58.450054 39.9531609,56.3608096 40.9746919,53.716532 C41.6681698,51.9214342 42.1495712,49.9912311 42.4586788,48.057875 C42.5633591,47.4031375 42.6388132,46.8061067 42.692819,46.2618613 C42.7094933,46.0938252 42.7206026,45.9685674 42.734005,45.8065075 C42.7392803,45.7422211 42.7392803,45.7422211 42.7682907,45.5604723 C42.781164,45.5094533 42.781164,45.5094533 42.8908757,45.310178 L43.0476144,45.1547936 L43.6719607,45.0313057 L44.0110549,45.2182844 C44.2743751,45.745332 44.2743751,45.745332 44.2421875,45.7734375 C44.2421875,46.6939575 44.2023443,46.774939 42.2516072,50.3404029 C41.9338977,50.921097 41.6905452,51.3838723 41.4731841,51.8277299 C40.3459375,54.1295999 40.1352764,55.5785224 40.8936113,56.3368574 C41.3348322,56.7780783 41.8931431,56.6735921 42.8186061,55.8596056 C43.7647438,55.0274347 44.8685431,53.5851817 46.1930606,51.5128412 C46.7387973,50.6589813 47.3089503,49.7208457 48.0010548,48.5474241 C48.3492681,47.9570493 49.567115,45.8685387 49.8098106,45.4561192 C50.492732,44.2956118 51.0058973,43.4521788 51.4750223,42.7304994 C52.7950692,40.6998027 53.6506234,39.7578125 54.5859375,39.7578125 C56.1421291,39.7578125 56.8828125,40.7947693 56.8828125,42.4414063 C56.8828125,43.4955666 56.6844874,44.4871921 56.0869819,46.8772142 C55.5243312,49.1278171 55.3359375,50.0697854 55.3359375,50.9492187 C55.3359375,51.1387926 55.3474948,51.2586233 55.3558653,51.2857729 C55.2900033,51.0721521 55.0313167,50.8351244 54.455888,50.9737646 C54.5241944,50.8881375 54.6170406,50.7475541 54.7318158,50.5540664 C54.9507912,50.1849185 56.3179757,47.5779758 56.7749371,46.775892 C58.5803939,43.6068542 60.1173296,41.890625 61.8945313,41.890625 C63.3431149,41.890625 64.0368924,42.8619134 64.0368924,44.3810764 C64.0368924,45.3386656 63.8578815,46.2337199 63.3183187,48.3919712 C62.8136107,50.4108032 62.6445313,51.2562003 62.5995495,52.0315149 C62.4981763,51.8202148 62.2968476,51.639373 61.9751185,51.6267677 C61.7129088,51.6164944 61.5454578,51.7172722 61.4064057,51.8270864 C61.4491978,51.7236148 61.6863984,51.1029758 61.6562237,51.1810143 C61.7896409,50.8359681 61.9058888,50.5540388 62.0328084,50.2770177 C62.4995573,49.258268 62.9896001,48.565112 63.6489648,48.2354296 C64.7404038,47.6897101 65.4955558,47.9370499 67.1556724,48.9177027 C68.5508018,49.7418241 69.0706922,49.8549525 69.7384565,49.3206412 C72.0120246,47.5014463 73.5674622,45.3936726 76.4404447,40.7049871 C76.5976001,40.4484254 76.5976001,40.4484254 76.754866,40.1916583 C79.1617152,36.2631235 80.4263289,34.4466047 82.2040449,32.6688887 C82.2634628,32.6103305 82.2634628,32.6103305 82.3959635,32.5233426 C82.6315857,32.4003226 82.6315857,32.4003226 83.1725242,32.5452295 C83.5085871,32.9183561 83.5085871,32.9183561 83.5244324,33.128947 C83.5271833,33.2643234 83.5271833,33.2643234 83.5161668,33.3391732 C83.4985449,33.4518501 83.4611618,33.5730805 83.3978042,33.747268 C83.3067801,33.9975185 83.1558268,34.3680112 82.9205656,34.9237638 C82.9252014,34.9128127 81.6959501,37.7794158 81.293062,38.7447007 C81.1723617,39.0338879 81.0571502,39.3124939 80.9466301,39.582655 C80.2819892,41.2073388 79.7927361,42.5128189 79.4918036,43.500199 C79.3258999,44.0445405 79.2229913,44.475967 79.1875091,44.7737237 C79.1728999,44.8963205 79.1715733,44.9828254 79.177566,45.0212638 C79.1676166,44.9574457 79.1194213,44.8592828 78.9867512,44.7670356 C80.9130715,46.1064301 84.3070517,45.1749768 88.8939515,42.3105156 C90.2883795,41.4397128 91.7609804,40.412655 93.374783,39.2028775 C94.6996173,38.2097233 100.055033,33.9473399 100.935537,33.3603373 L101.767588,34.6084127 C100.949483,35.1538157 95.644114,39.3763666 94.2745095,40.4030825 C92.6291893,41.6364871 91.1230554,42.6869323 89.6884809,43.582806 C84.6184227,46.7489936 80.7403578,47.8133005 78.1304363,45.9985894 C77.1615834,45.3249339 77.7013089,43.5540578 79.558309,39.0147075 C79.6702212,38.7411432 79.7867782,38.4592837 79.9087962,38.1669394 C80.3150621,37.1935615 81.5464444,34.3219891 81.5392353,34.3390189 C81.7646689,33.806482 81.9087205,33.4529282 82.0299495,33.2574801 C82.04255,33.4483897 82.04255,33.4483897 82.3699689,33.8124726 C82.899518,33.9537359 82.899518,33.9537359 83.2647051,33.7295488 C81.5986553,35.3955987 80.3790089,37.1475254 78.0339075,40.9752736 C77.8768311,41.2317314 77.8768311,41.2317314 77.7194351,41.4886859 C74.7559186,46.3251221 73.130772,48.5273585 70.675606,50.4918588 C69.3442456,51.5571465 68.2841506,51.3264692 66.3927659,50.2092033 C65.185894,49.4962881 64.7602063,49.3568599 64.3197852,49.5770704 C64.0613783,49.7062738 63.7285392,50.1770684 63.3964959,50.9018028 C63.2842818,51.1467269 63.1786886,51.4028161 63.0552791,51.72198 C63.0951635,51.6188301 62.8444206,52.2749028 62.7925433,52.4003425 C62.7453255,52.5145155 62.7052735,52.6014932 62.6620488,52.6776439 C62.6235042,52.7455491 62.5824516,52.805798 62.5272801,52.865947 C62.3820769,53.0242502 62.1954773,53.1365522 61.9163938,53.1256178 C61.5774365,53.1123375 61.3612081,52.9181122 61.247138,52.6803469 C61.2031823,52.5887267 61.1808207,52.5038903 61.1662745,52.4105162 C61.1504321,52.3088215 61.1445313,52.1913224 61.1445313,52.0390625 C61.1445313,51.0814733 61.3235421,50.186419 61.8631049,48.0281677 C62.3678129,46.0093357 62.5368924,45.1639386 62.5368924,44.3810764 C62.5368924,43.6028435 62.3853077,43.390625 61.8945313,43.390625 C60.9068577,43.390625 59.5959952,44.8544082 58.0782613,47.5184188 C57.641269,48.2854519 56.2657612,50.9082651 56.0219142,51.3193416 C55.6154191,52.0046097 55.3848688,52.2936216 54.947518,52.385226 C54.0222724,52.5790215 53.8359375,51.974652 53.8359375,50.9492187 C53.8359375,49.8950584 54.0342626,48.9034329 54.6317681,46.5134108 C55.1944188,44.2628079 55.3828125,43.3208396 55.3828125,42.4414063 C55.3828125,41.5356994 55.1843218,41.2578125 54.5859375,41.2578125 C54.1097133,41.2578125 53.3796535,42.3809016 49.2930619,49.3094724 C48.5926314,50.4970104 48.0138682,51.4493132 47.4569604,52.3206513 C46.062005,54.503199 44.8881313,56.0370131 43.8092592,56.9859299 C42.3628723,58.2580924 40.956689,58.5212555 39.8329512,57.3975176 C38.4433955,56.007962 38.7337051,54.0112186 40.1260438,51.1680231 C40.3549857,50.7005171 40.6080415,50.2192896 40.9356863,49.6204361 C42.584086,46.6075699 42.7421875,46.2862285 42.7426094,45.7919447 C42.7094145,45.7749015 42.7094145,45.7749015 43.3112352,46.4872854 L43.9354686,46.3638077 L44.1301444,46.1525736 C44.2016335,46.0096156 44.2016335,46.0096156 44.2289017,45.9301359 C44.2148813,46.0996681 44.2031068,46.2324261 44.185488,46.4099798 C44.1286697,46.9825688 44.0495144,47.6088856 43.9398672,48.2946894 C43.6153422,50.3244758 43.1092926,52.3535069 42.3739107,54.2570749 C41.2595227,57.1417168 39.7228781,59.4583404 37.6805585,60.9905576 C35.2099539,62.8440889 27.0820313,61.5112504 27.0820313,58.6523438 C27.0820313,54.5697845 28.7746877,49.4026657 32.0936517,42.2180163 C32.6990488,40.9074972 33.3518631,39.5412982 34.1520962,37.9010026 C34.1245822,37.9574 34.5134233,36.3913311 35.1555713,33.9810313 C33.4819873,35.129545 31.8068827,36.2923211 30.1301195,37.4693291 L29.268318,36.2416084 C31.4338642,34.721498 33.5967149,33.22502 35.7571674,31.7522405 C37.973339,23.6448247 41.8957131,10.3974609 43.6719592,10.3974609 C46.2421996,10.397461 45.9223856,12.246581 45.8753945,13.208332 C45.848664,13.7554167 45.7284686,14.510166 45.5225815,15.4695796 C45.1654888,17.1335963 44.5526645,19.4003576 43.7473184,22.0948732 C43.2380307,23.7988407 42.6199379,25.7617995 42.048082,27.5264605 C58.0388505,16.9454275 73.9135802,7.67148128 89.7934961,-0.268476643 L90.4643164,1.07316414 C74.116289,9.24717788 57.7690686,18.842784 41.2902127,29.8306333 Z M40.4685912,28.5755992 C40.9880949,27.5498613 41.3552696,26.792512 41.473183,26.4780273 C42.4671228,23.8271079 45.2175296,13.5161133 44.4968265,13.2083321 C43.7761234,12.9005508 38.7837643,28.2126797 38.456055,28.9775391 C38.4405906,29.0136324 38.3694951,29.4223561 38.2594847,30.056302 C38.9961155,29.5599709 39.7324804,29.0664024 40.4685912,28.5755992 Z" id="etienne-sig"></path>
                </g>
            </g>
        </g>
    </g>
</svg>